HIERARCHY
ROOT Hips
{
	OFFSET 0.00000 0.00000 0.00000
	CHANNELS 6 Xposition Yposition Zposition Yrotation Zrotation Xrotation 
	JOINT Lumbar
	{
		OFFSET 0 0 0
		CHANNELS 3 Zrotation Xrotation Yrotation
		JOINT Neck
		{
			OFFSET 0.00 0.2701 0.00
			CHANNELS 3 Zrotation Xrotation Yrotation
			End Site
			{
				OFFSET 0.00 0.1379 0.00
			}
		}
		JOINT RightShoulder
		{
			OFFSET 0.0119 0.2289 0.1181
			CHANNELS 3 Zrotation Xrotation Yrotation
			JOINT RightElbow
			{
				OFFSET 0.00 -0.1475 0.00
				CHANNELS 2 Zrotation Yrotation
				JOINT RightWrist
				{
					OFFSET 0.00 -0.1605 0.00
					CHANNELS 2 Zrotation Xrotation
					End Site
					{
						OFFSET 0.0040 -0.1068 0.0006
					}
				}
			}
		}
		JOINT LeftShoulder
		{
			OFFSET 0.0119 0.2289 -0.1181
			CHANNELS 3 Zrotation Xrotation Yrotation
			JOINT LeftElbow
			{
				OFFSET 0.00 -0.1475 0.00
				CHANNELS 2 Zrotation Yrotation
				JOINT LeftWrist
				{
					OFFSET 0.00 -0.1605 0.00
					CHANNELS 2 Zrotation Xrotation
					End Site
					{
						OFFSET 0.0040 -0.1068 -0.0006
					}
				}
			}
		}
	}
	JOINT RightHip
	{
		OFFSET 0.0316 -0.0424 0.0458
		CHANNELS 3 Zrotation Xrotation Yrotation
		JOINT RightKnee
		{
			OFFSET 0.00 -0.2438 0.00
			CHANNELS 1 Zrotation
			JOINT RightAnkle
			{
				OFFSET 0.00 -0.2449 0.00
				CHANNELS 3 Zrotation Xrotation Yrotation
				End Site
				{
					OFFSET 0.1237 -0.0542 0.0051
				}
			}
		}
	}
	JOINT LeftHip
	{
		OFFSET 0.0316 -0.0424 -0.0458
		CHANNELS 3 Zrotation Xrotation Yrotation
		JOINT LeftKnee
		{
			OFFSET 0.00 -0.2438 0.00
			CHANNELS 1 Zrotation
			JOINT LeftAnkle
			{
				OFFSET 0.00 -0.2449 0.00
				CHANNELS 3 Zrotation Xrotation Yrotation
				End Site
				{
					OFFSET 0.1237 -0.0542 -0.0051
				}
			}
		}
	}
}
MOTION
Frames: 11
Frame Time: 0.02
-0.0023 0.00053 0.00084 -173.91674 -29.84958 1.00115 44.62989 -0.85696 -7.77143 -10.97271 2.62675 -0.35751 -17.69186 -3.3409 -13.11895 25.79089 149.41423 22.23247 9.13964 -20.66962 7.39688 -4.39732 29.85147 -106.81781 16.11186 -1.28556 28.22155 -2.7725 -2.28269 -20.00916 -6.83302 -4.90784 -3.25996 33.5551 3.33196 4.78601 -24.2018 -6.32912 3.04929 2.10004
-0.00259 0.00045 0.00086 -173.90933 -29.85908 1.02733 44.60562 -0.85538 -7.67826 -10.88499 2.61041 -0.3579 -17.62417 -3.65525 -11.68465 25.73597 144.15386 20.86274 8.3398 -20.50168 7.41167 -4.50642 29.78916 -106.83477 16.12499 -1.28983 28.20826 -2.82485 -2.42431 -20.02156 -6.82132 -4.89902 -3.25233 33.53769 3.30264 4.7953 -24.20746 -6.32533 3.03616 2.10397
-0.00288 0.00037 0.00089 -173.90194 -29.86856 1.05344 44.58141 -0.8538 -7.58539 -10.79761 2.59412 -0.35829 -17.55673 -3.96873 -10.25447 25.6815 138.90969 19.49726 7.54242 -20.33439 7.42658 -4.61556 29.72745 -106.85168 16.13812 -1.29408 28.19499 -2.87705 -2.56561 -20.03394 -6.80965 -4.8902 -3.24472 33.52031 3.27338 4.80437 -24.21311 -6.32155 3.02308 2.10789
-0.00317 0.00028 0.00091 -173.89455 -29.87802 1.07955 44.55721 -0.85222 -7.49251 -10.7102 2.57784 -0.35868 -17.48921 -4.2821 -8.82461 25.62668 133.66553 18.13175 6.74504 -20.16692 7.44131 -4.72434 29.66524 -106.86861 16.15123 -1.29835 28.18173 -2.92923 -2.70678 -20.0463 -6.79799 -4.8814 -3.23712 33.50294 3.24414 4.81362 -24.21874 -6.31777 3.00999 2.11181
-0.00347 0.0002 0.00094 -173.88717 -29.88753 1.10573 44.53293 -0.85064 -7.3993 -10.62236 2.56152 -0.35907 -17.42153 -4.59638 -7.39053 25.57164 128.40519 16.76201 5.94519 -19.99896 7.45598 -4.83308 29.60273 -106.88552 16.1643 -1.30262 28.16848 -2.98157 -2.8483 -20.05867 -6.7863 -4.87258 -3.2295 33.48558 3.21487 4.82314 -24.22439 -6.31398 2.99684 2.11573
-0.00376 0.00012 0.00096 -173.87977 -29.89695 1.13169 44.50887 -0.84905 -7.30714 -10.5359 2.54529 -0.35946 -17.35466 -4.90821 -5.96854 25.51853 123.19527 15.40555 5.15304 -19.83319 7.47148 -4.94311 29.54294 -106.90238 16.1775 -1.30683 28.15519 -3.03347 -2.98919 -20.07109 -6.77464 -4.86376 -3.22192 33.46819 3.18563 4.83125 -24.23003 -6.31023 2.98393 2.11968
-0.00405 4e-05 0.00099 -173.87237 -29.90647 1.15808 44.48445 -0.8475 -7.21301 -10.44693 2.52888 -0.35985 -17.28594 -5.22437 -4.52437 25.46075 117.88997 14.02392 4.34634 -19.6627 7.48494 -5.05011 29.47658 -106.91952 16.19054 -1.31118 28.14191 -3.08617 -3.13095 -20.08339 -6.76295 -4.85498 -3.21428 33.45078 3.15636 4.84225 -24.23568 -6.30639 2.97054 2.12355
-0.00434 -4e-05 0.00101 -173.86503 -29.91604 1.18404 44.46027 -0.84587 -7.12063 -10.35999 2.51268 -0.36024 -17.21947 -5.53702 -3.09958 25.40881 112.67202 12.6654 3.55292 -19.49745 7.50092 -5.16045 29.41839 -106.93604 16.20353 -1.31537 28.1288 -3.13818 -3.27235 -20.09579 -6.75127 -4.84611 -3.20666 33.43357 3.12713 4.85048 -24.24133 -6.30265 2.95761 2.12751
-0.00463 -0.00012 0.00103 -173.85753 -29.92512 1.20961 44.43673 -0.84432 -7.03062 -10.27664 2.49657 -0.36063 -17.15356 -5.84362 -1.70213 25.35797 107.56107 11.33496 2.77592 -19.33504 7.51748 -5.27285 29.36188 -106.95325 16.21725 -1.3195 28.11519 -3.18919 -3.41163 -20.10835 -6.73968 -4.83732 -3.19919 33.41587 3.09786 4.85573 -24.24694 -6.29897 2.94514 2.13154
-0.00492 -0.0002 0.00107 -173.85024 -29.93533 1.23781 44.41053 -0.84284 -6.92766 -10.17598 2.47943 -0.36103 -17.07785 -6.17976 -0.15829 25.28263 101.83501 9.84239 1.905 -19.14556 7.52318 -5.36731 29.27073 -106.97085 16.22915 -1.32439 28.10231 -3.24549 -3.55809 -20.12011 -6.72782 -4.82868 -3.19125 33.39877 3.06854 4.87935 -24.25263 -6.29478 2.92974 2.13504
-0.00521 -0.00028 0.00108 -173.84296 -29.94423 1.26023 44.38928 -0.84087 -6.85158 -10.10967 2.4648 -0.36141 -17.02703 -6.4569 1.08355 25.27058 97.40677 8.69235 1.23196 -19.02007 7.55661 -5.50345 29.26858 -106.98484 16.24337 -1.3274 28.08926 -3.29094 -3.69255 -20.13349 -6.71634 -4.81934 -3.18404 33.38186 3.03953 4.86343 -24.25828 -6.29175 2.92072 2.13975
